name C:/MyDriveSym/Projects/mobilecap/Data\Session20210820_0002\mocap\ForceDataProcessed\walking3_forces.mot
datacolumns 19
datarows 19
range 0.70450000 0.71350000
endheader 
time	R_ground_force_vx	R_ground_force_vy	R_ground_force_vz	R_ground_force_px	R_ground_force_py	R_ground_force_pz	R_ground_torque_x	R_ground_torque_y	R_ground_torque_z	L_ground_force_vx	L_ground_force_vy	L_ground_force_vz	L_ground_force_px	L_ground_force_py	L_ground_force_pz	L_ground_torque_x	L_ground_torque_y	L_ground_torque_z	
          0.70450000	         38.49613100	        151.02710800	          4.04189800	          0.34378400	          0.00600000	         -0.15398300	          0.00000000	         -1.47744000	          0.00000000	       -119.94628600	        749.62473900	         17.64435400	          0.84584700	          0.00600000	         -0.24260800	          0.00000000	          0.85896300	          0.00000000	
          0.70500000	         38.03811200	        148.88702000	          3.99368600	          0.34424500	          0.00600000	         -0.15408200	          0.00000000	         -1.46216700	          0.00000000	       -120.02138600	        750.88161700	         17.79133800	          0.84594400	          0.00600000	         -0.24262900	          0.00000000	          0.85752900	          0.00000000	
          0.70550000	         37.58228200	        146.76251600	          3.94556000	          0.34471300	          0.00600000	         -0.15418100	          0.00000000	         -1.44694300	          0.00000000	       -120.09092200	        752.12141300	         17.93702900	          0.84604000	          0.00600000	         -0.24264900	          0.00000000	          0.85613100	          0.00000000	
          0.70600000	         37.12867000	        144.65361500	          3.89753000	          0.34518600	          0.00600000	         -0.15428200	          0.00000000	         -1.43177000	          0.00000000	       -120.15490500	        753.34414200	         18.08142600	          0.84613500	          0.00600000	         -0.24267000	          0.00000000	          0.85477000	          0.00000000	
          0.70650000	         36.67730400	        142.56033200	          3.84960800	          0.34566400	          0.00600000	         -0.15438300	          0.00000000	         -1.41664900	          0.00000000	       -120.21334600	        754.54982400	         18.22452600	          0.84623000	          0.00600000	         -0.24269000	          0.00000000	          0.85344800	          0.00000000	
          0.70700000	         36.22821300	        140.48268000	          3.80180400	          0.34615000	          0.00600000	         -0.15448600	          0.00000000	         -1.40158100	          0.00000000	       -120.26625600	        755.73847800	         18.36632800	          0.84632400	          0.00600000	         -0.24271000	          0.00000000	          0.85216700	          0.00000000	
          0.70750000	         35.78142400	        138.42067100	          3.75413000	          0.34664100	          0.00600000	         -0.15458900	          0.00000000	         -1.38656600	          0.00000000	       -120.31364700	        756.91012600	         18.50683000	          0.84641700	          0.00600000	         -0.24273000	          0.00000000	          0.85092900	          0.00000000	
          0.70800000	         35.33696400	        136.37431600	          3.70659600	          0.34713900	          0.00600000	         -0.15469300	          0.00000000	         -1.37160700	          0.00000000	       -120.35553100	        758.06478700	         18.64603200	          0.84651000	          0.00600000	         -0.24274900	          0.00000000	          0.84973400	          0.00000000	
          0.70850000	         34.89485900	        134.34362200	          3.65921100	          0.34764300	          0.00600000	         -0.15479900	          0.00000000	         -1.35670400	          0.00000000	       -120.39192200	        759.20248600	         18.78393300	          0.84660200	          0.00600000	         -0.24276900	          0.00000000	          0.84858400	          0.00000000	
          0.70900000	         34.45513400	        132.32859500	          3.61198700	          0.34815400	          0.00600000	         -0.15490600	          0.00000000	         -1.34185900	          0.00000000	       -120.42283200	        760.32324600	         18.92053400	          0.84669400	          0.00600000	         -0.24278800	          0.00000000	          0.84748100	          0.00000000	
          0.70950000	         34.01781400	        130.32924000	          3.56493100	          0.34867200	          0.00600000	         -0.15501400	          0.00000000	         -1.32707200	          0.00000000	       -120.44827600	        761.42709200	         19.05583300	          0.84678500	          0.00600000	         -0.24280700	          0.00000000	          0.84642600	          0.00000000	
          0.71000000	         33.58292400	        128.34556000	          3.51805500	          0.34919700	          0.00600000	         -0.15512300	          0.00000000	         -1.31234500	          0.00000000	       -120.46826600	        762.51404900	         19.18983200	          0.84687600	          0.00600000	         -0.24282600	          0.00000000	          0.84542100	          0.00000000	
          0.71050000	         33.15048700	        126.37755600	          3.47136600	          0.34973000	          0.00600000	         -0.15523300	          0.00000000	         -1.29767800	          0.00000000	       -120.48281800	        763.58414300	         19.32253200	          0.84696600	          0.00600000	         -0.24284500	          0.00000000	          0.84446800	          0.00000000	
          0.71100000	         32.72052500	        124.42522700	          3.42487400	          0.35027000	          0.00600000	         -0.15534500	          0.00000000	         -1.28307300	          0.00000000	       -120.49194600	        764.63740300	         19.45393300	          0.84705500	          0.00600000	         -0.24286400	          0.00000000	          0.84356700	          0.00000000	
          0.71150000	         32.29306000	        122.48857000	          3.37858700	          0.35081900	          0.00600000	         -0.15545800	          0.00000000	         -1.26853100	          0.00000000	       -120.49566600	        765.67385600	         19.58403600	          0.84714400	          0.00600000	         -0.24288200	          0.00000000	          0.84272000	          0.00000000	
          0.71200000	         31.86811400	        120.56758100	          3.33251200	          0.35137500	          0.00600000	         -0.15557200	          0.00000000	         -1.25405300	          0.00000000	       -120.49399200	        766.69353100	         19.71284400	          0.84723200	          0.00600000	         -0.24290100	          0.00000000	          0.84192800	          0.00000000	
          0.71250000	         31.44570800	        118.66225500	          3.28665900	          0.35193900	          0.00600000	         -0.15568800	          0.00000000	         -1.23964000	          0.00000000	       -120.48694200	        767.69645900	         19.84035900	          0.84732000	          0.00600000	         -0.24291900	          0.00000000	          0.84119300	          0.00000000	
          0.71300000	         31.02586100	        116.77258500	          3.24103400	          0.35251300	          0.00600000	         -0.15580500	          0.00000000	         -1.22529300	          0.00000000	       -120.47453100	        768.68266900	         19.96658200	          0.84740700	          0.00600000	         -0.24293700	          0.00000000	          0.84051700	          0.00000000	
          0.71350000	         30.60859300	        114.89856000	          3.19564600	          0.35309500	          0.00600000	         -0.15592400	          0.00000000	         -1.21101300	          0.00000000	       -120.45677700	        769.65219400	         20.09151700	          0.84749400	          0.00600000	         -0.24295500	          0.00000000	          0.83990000	          0.00000000	
